<svg xmlns="http://www.w3.org/2000/svg" viewBox="0 0 38.49 16.58"><title>Asset 4</title><g id="Layer_2" data-name="Layer 2"><g id="Layer_1-2" data-name="Layer 1"><polyline points="5.04 16.58 5.04 14.18 5.04 10.5" style="fill:none"/><polyline points="7.47 12.94 7.47 14.18 15.61 14.18" style="fill:none"/><polygon points="34.97 0 31.96 10.66 28.95 0 27.89 0 26.42 0 25.37 0 21.83 12.51 18.3 0 15.78 0 20.46 16.58 20.68 16.58 22.98 16.58 23.21 16.58 27.16 2.59 30.7 15.13 31.11 16.58 33.81 16.58 34.22 15.13 38.49 0 34.97 0" style="fill:#212121"/><polyline points="4.49 8.31 11.21 0 7.54 0 2.44 6.53 2.44 0 0 0 0 8.69 0 9.94 0 16.58 2.44 16.58 2.44 11.78 2.44 11.73 2.46 10.76" style="fill:#212121"/><polygon points="7.47 14.18 7.47 11.94 5.04 9.5 5.04 14.18 5.04 16.58 11.55 16.58 9.15 14.18 7.47 14.18" style="fill:#e63131"/><polygon points="18.48 14.18 14.47 0 11.95 0 15.96 14.18 15.61 14.18 12.5 14.18 14.9 16.58 16.63 16.58 17.81 16.58 19.16 16.58 18.48 14.18" style="fill:#e63131"/><polygon points="12.5 14.18 3.98 5.66 2.3 7.33 9.15 14.18 11.92 14.18 12.5 14.18" style="fill:#212121"/><polygon points="11.92 14.18 9.15 14.18 11.55 16.58 14.12 16.58 14.9 16.58 12.5 14.18 11.92 14.18" style="fill:#212121"/></g></g></svg>